<svg width="447" height="499" viewBox="0 0 447 499" fill="none" xmlns="http://www.w3.org/2000/svg">
<path d="M229.852 259.329H446.693V483.974C446.693 486.763 446.693 488.158 446.416 489.309C445.539 492.965 442.684 495.82 439.027 496.698C437.876 496.974 436.482 496.974 433.693 496.974H229.852V259.329Z" fill="#9747FF"/>
<g clip-path="url(#clip0_45_1034)">
<path d="M239.702 372.92C240.437 374.147 241.432 375.198 242.617 375.999C243.802 376.8 245.148 377.332 246.561 377.556C247.974 377.781 249.419 377.693 250.794 377.299C252.169 376.905 253.441 376.214 254.52 375.275L284.683 392.574L283.559 374.54L255.088 360.877C253.39 359.168 251.125 358.142 248.721 357.992C246.317 357.843 243.942 358.58 242.046 360.064C240.149 361.549 238.863 363.677 238.431 366.047C237.999 368.416 238.451 370.861 239.702 372.92Z" fill="#FFB8B8"/>
<path d="M327.026 442.221C318.079 454.744 318.399 475.695 320.896 498.625H363.199L365.038 494.334L367.49 498.625H407.341C407.341 498.625 404.276 440.382 398.758 438.543C393.24 436.703 327.026 442.221 327.026 442.221Z" fill="#2F2E41"/>
<path d="M363.199 311.383C375.05 311.383 384.657 301.776 384.657 289.925C384.657 278.074 375.05 268.467 363.199 268.467C351.348 268.467 341.74 278.074 341.74 289.925C341.74 301.776 351.348 311.383 363.199 311.383Z" fill="#FFB8B8"/>
<path d="M378.708 316.951L382.904 324.993L411.928 337.932L404.299 411.763L401.088 419.409L402.823 426.049L398.64 430.949C402.839 434.748 403.372 438.724 401.088 442.838L387.722 445.9C387.722 445.9 313.406 452.508 319.669 440.995C326.513 428.415 328.255 391.264 313.148 371.411C300.322 354.557 310.169 332.687 310.169 332.687L340.592 323.595L351.782 316.951L378.708 316.951Z" fill="#3F3D56"/>
<path d="M372.725 258.493C372.826 258.279 372.988 258.101 373.191 257.98C373.394 257.86 373.628 257.803 373.864 257.817C364.04 257.229 353.692 258.374 345.474 263.788C343.483 265.099 341.605 266.664 339.439 267.615C339.336 267.661 339.248 267.733 339.181 267.823C339.115 267.913 339.073 268.019 339.06 268.131C339.046 268.242 339.062 268.355 339.105 268.458C339.148 268.562 339.217 268.652 339.306 268.721L339.544 268.908C339.638 268.981 339.71 269.079 339.752 269.191C339.794 269.303 339.805 269.424 339.783 269.541C339.761 269.658 339.707 269.767 339.628 269.856C339.548 269.945 339.446 270.011 339.332 270.045C339.213 270.082 339.106 270.151 339.026 270.246C338.945 270.34 338.893 270.456 338.876 270.579C338.858 270.702 338.877 270.828 338.928 270.941C338.98 271.054 339.063 271.15 339.168 271.218L340.991 272.396C341.083 272.455 341.159 272.535 341.212 272.63C341.264 272.725 341.292 272.832 341.293 272.941C341.293 273.05 341.267 273.157 341.215 273.253C341.163 273.349 341.089 273.43 340.997 273.489C340.843 273.585 340.681 273.667 340.512 273.735C340.408 273.775 340.315 273.84 340.243 273.926C340.171 274.011 340.122 274.114 340.101 274.224C340.081 274.334 340.089 274.447 340.125 274.553C340.16 274.659 340.223 274.754 340.306 274.829C341.096 275.532 341.702 276.418 342.07 277.408C342.678 278.989 342.788 280.71 342.89 282.4C343.518 279.962 346.18 278.526 348.694 278.38C351.208 278.234 353.66 279.064 356.107 279.66C361.437 280.955 366.972 281.168 372.385 280.286C370.546 283.975 372.097 288.375 373.657 292.19L378.708 290.025C385.644 286.109 380.813 302.672 378.219 304.946C383.514 306.782 397.373 286.408 392.914 278.679C390.595 274.659 392.241 269.474 387.682 265.662C385.447 263.309 380.986 264.355 378.708 262.4C377.811 261.63 379.178 259.571 377.946 259.123C377.536 258.974 372.793 258.342 372.725 258.493Z" fill="#2F2E41"/>
<path d="M336.378 325.672C332.441 343.153 322.342 383.968 312.096 392.504C311.446 393.118 310.667 393.578 309.816 393.85C273.802 402.624 262.262 380.244 262.262 380.244C262.262 380.244 271.913 375.541 272.158 366.347L291.622 372.387L308.588 334.204L311.085 331.875L311.099 331.861L336.378 325.672Z" fill="#3F3D56"/>
<path d="M413.166 487.099C414.198 486.108 414.999 484.902 415.514 483.568C416.029 482.233 416.245 480.802 416.147 479.375C416.049 477.948 415.64 476.559 414.947 475.308C414.254 474.056 413.296 472.972 412.139 472.13L422.235 438.857L404.912 443.996L397.98 474.805C396.696 476.843 396.204 479.28 396.597 481.656C396.99 484.032 398.241 486.182 400.113 487.697C401.985 489.213 404.347 489.989 406.753 489.878C409.159 489.768 411.441 488.779 413.166 487.099Z" fill="#FFB8B8"/>
<path d="M403.926 336.07L411.928 337.932C411.928 337.932 445.003 402.284 437.033 414.546C429.063 426.808 419.299 467.403 419.299 467.403C419.299 467.403 404.857 464.532 399.339 457.175L409.444 409.028L399.021 368.564L403.926 336.07Z" fill="#3F3D56"/>
<path d="M252.113 431.631L252.4 327.988C252.408 325.891 253.248 323.882 254.736 322.402C256.223 320.923 258.236 320.094 260.334 320.098L338.608 320.315C340.706 320.323 342.714 321.163 344.194 322.651C345.673 324.138 346.502 326.151 346.498 328.249L346.211 431.892C346.203 433.99 345.363 435.999 343.875 437.478C342.388 438.957 340.374 439.786 338.277 439.783L260.003 439.566C257.905 439.558 255.896 438.718 254.417 437.23C252.938 435.743 252.109 433.729 252.113 431.631Z" fill="#E6E6E6"/>
<path d="M258.204 400.344L258.388 333.712C258.396 331.748 259.183 329.866 260.576 328.481C261.969 327.096 263.854 326.319 265.819 326.323L333.089 326.509C335.053 326.517 336.935 327.303 338.32 328.696C339.705 330.09 340.482 331.975 340.478 333.94L340.223 426.168C340.215 428.133 339.428 430.014 338.035 431.4C336.642 432.785 334.756 433.561 332.792 433.558L291.12 433.442C282.369 433.408 273.988 429.904 267.818 423.699C261.647 417.494 258.189 409.095 258.204 400.344Z" fill="white"/>
<path d="M325.38 355.591H272.927C272.093 355.591 271.292 355.26 270.702 354.669C270.112 354.079 269.78 353.279 269.78 352.444C269.78 351.609 270.112 350.809 270.702 350.219C271.292 349.628 272.093 349.297 272.927 349.297H325.38C326.215 349.297 327.016 349.628 327.606 350.219C328.196 350.809 328.528 351.609 328.528 352.444C328.528 353.279 328.196 354.079 327.606 354.669C327.016 355.26 326.215 355.591 325.38 355.591Z" fill="#FACB2E"/>
<path d="M284.467 341.079H272.927C272.093 341.079 271.292 340.748 270.702 340.157C270.112 339.567 269.78 338.767 269.78 337.932C269.78 337.097 270.112 336.297 270.702 335.707C271.292 335.116 272.093 334.785 272.927 334.785H284.467C285.302 334.785 286.102 335.116 286.693 335.707C287.283 336.297 287.614 337.097 287.614 337.932C287.614 338.767 287.283 339.567 286.693 340.157C286.102 340.748 285.302 341.079 284.467 341.079Z" fill="#FACB2E"/>
<path d="M325.38 370.103H272.927C272.093 370.103 271.292 369.772 270.702 369.181C270.112 368.591 269.78 367.791 269.78 366.956C269.78 366.121 270.112 365.321 270.702 364.731C271.292 364.14 272.093 363.809 272.927 363.809H325.38C326.215 363.809 327.016 364.14 327.606 364.731C328.196 365.321 328.528 366.121 328.528 366.956C328.528 367.791 328.196 368.591 327.606 369.181C327.016 369.772 326.215 370.103 325.38 370.103Z" fill="#FACB2E"/>
<path d="M325.38 384.615H272.927C272.093 384.615 271.292 384.284 270.702 383.693C270.112 383.103 269.78 382.303 269.78 381.468C269.78 380.633 270.112 379.833 270.702 379.243C271.292 378.652 272.093 378.321 272.927 378.321H325.38C326.215 378.321 327.016 378.652 327.606 379.243C328.196 379.833 328.528 380.633 328.528 381.468C328.528 382.303 328.196 383.103 327.606 383.693C327.016 384.284 326.215 384.615 325.38 384.615Z" fill="#FACB2E"/>
<path d="M321.136 422.854C328.052 422.854 333.659 417.247 333.659 410.331C333.659 403.415 328.052 397.808 321.136 397.808C314.22 397.808 308.614 403.415 308.614 410.331C308.614 417.247 314.22 422.854 321.136 422.854Z" fill="#FACB2E"/>
<path d="M319.428 416.848C319.212 416.848 318.999 416.798 318.805 416.701C318.612 416.605 318.443 416.464 318.314 416.291L314.897 411.736C314.787 411.59 314.707 411.423 314.662 411.246C314.616 411.068 314.606 410.884 314.632 410.703C314.657 410.521 314.719 410.347 314.812 410.189C314.905 410.032 315.029 409.894 315.175 409.784C315.321 409.675 315.488 409.595 315.665 409.549C315.843 409.504 316.027 409.494 316.209 409.52C316.39 409.546 316.564 409.607 316.722 409.701C316.879 409.794 317.016 409.918 317.126 410.064L319.361 413.044L325.102 404.434C325.203 404.281 325.333 404.149 325.485 404.047C325.638 403.945 325.808 403.873 325.988 403.837C326.168 403.801 326.353 403.801 326.533 403.836C326.712 403.871 326.883 403.942 327.036 404.044C327.188 404.145 327.319 404.276 327.421 404.428C327.523 404.581 327.594 404.752 327.63 404.932C327.665 405.111 327.665 405.296 327.629 405.476C327.593 405.656 327.522 405.827 327.42 405.979L320.587 416.228C320.464 416.413 320.297 416.567 320.102 416.674C319.907 416.782 319.689 416.842 319.467 416.848C319.454 416.848 319.441 416.848 319.428 416.848Z" fill="white"/>
<path d="M294.433 295.969C297.716 295.969 300.378 293.308 300.378 290.025C300.378 286.742 297.716 284.08 294.433 284.08C291.15 284.08 288.489 286.742 288.489 290.025C288.489 293.308 291.15 295.969 294.433 295.969Z" fill="#F2F2F2"/>
<path d="M272.753 466.966C276.036 466.966 278.697 464.305 278.697 461.022C278.697 457.739 276.036 455.077 272.753 455.077C269.47 455.077 266.808 457.739 266.808 461.022C266.808 464.305 269.47 466.966 272.753 466.966Z" fill="#F2F2F2"/>
<path d="M409.48 319.049C412.763 319.049 415.425 316.387 415.425 313.104C415.425 309.821 412.763 307.159 409.48 307.159C406.197 307.159 403.536 309.821 403.536 313.104C403.536 316.387 406.197 319.049 409.48 319.049Z" fill="#F2F2F2"/>
</g>
<path d="M0 259.329H216.841V497H13C10.2109 497 8.81642 497 7.66555 496.724C4.00906 495.846 1.15415 492.991 0.276301 489.335C0 488.184 0 486.789 0 484V259.329Z" fill="#9747FF"/>
<g clip-path="url(#clip1_45_1034)">
<path d="M199.923 490.179H16.9183C14.6654 490.177 12.5054 489.281 10.9123 487.687C9.31923 486.094 8.42313 483.934 8.42059 481.681V274.647C8.42313 272.394 9.31923 270.234 10.9123 268.641C12.5054 267.048 14.6654 266.152 16.9183 266.15H199.923C202.176 266.152 204.336 267.048 205.929 268.641C207.522 270.234 208.418 272.394 208.421 274.647V481.681C208.418 483.934 207.522 486.094 205.929 487.687C204.336 489.281 202.176 490.177 199.923 490.179Z" fill="#F2F2F2"/>
<path d="M190.72 280.567H26.1212C24.5903 280.569 23.1228 281.179 22.0403 282.261C20.9578 283.343 20.3488 284.811 20.3467 286.342V438.068C20.3488 439.599 20.9578 441.067 22.0403 442.149C23.1228 443.232 24.5903 443.841 26.1212 443.843H190.72C192.251 443.841 193.718 443.232 194.801 442.149C195.883 441.067 196.492 439.599 196.495 438.068V286.342C196.492 284.811 195.883 283.343 194.801 282.261C193.718 281.179 192.251 280.569 190.72 280.567Z" fill="#FACB2E"/>
<path d="M111.762 350.293C110.163 347.649 108.268 344.825 105.301 343.962C101.865 342.962 98.3351 344.948 95.3409 346.909C86.3867 352.771 77.7636 359.125 69.5111 365.94L69.5201 366.042C75.945 365.599 82.3699 365.156 88.7947 364.713C93.4367 364.393 98.2381 364.029 102.34 361.833C103.897 361 105.414 359.887 107.178 359.809C109.37 359.713 111.281 361.243 112.782 362.842C121.665 372.301 124.236 386.767 134.202 395.077C127.918 379.58 120.414 364.605 111.762 350.293Z" fill="white"/>
<path d="M166.364 430.524C165.382 429.284 164.981 428.993 164.012 427.741C156.122 417.537 148.706 406.988 141.765 396.095C137.05 388.697 132.568 381.156 128.321 373.474C126.299 369.821 124.332 366.14 122.421 362.43C120.938 359.554 119.488 356.66 118.071 353.75C117.666 352.918 117.272 352.083 116.88 351.246C115.957 349.277 115.051 347.299 114.078 345.357C112.97 343.144 111.621 340.824 109.585 339.337C108.659 338.632 107.551 338.206 106.391 338.108C104.734 338.001 103.205 338.685 101.768 339.432C91.2419 344.966 81.4169 351.741 72.5033 359.613C63.576 367.454 55.5965 376.311 48.7274 386.006C48.5172 386.306 48.0203 386.019 48.2324 385.717C49.0676 384.536 49.9194 383.367 50.7877 382.212C61.5849 367.852 74.8238 355.503 89.8993 345.73C92.4356 344.086 95.0196 342.52 97.6513 341.03C98.9777 340.279 100.31 339.538 101.665 338.842C102.993 338.16 104.404 337.546 105.921 337.523C111.085 337.443 113.759 343.291 115.596 347.227C116.173 348.465 116.757 349.7 117.349 350.931C119.583 355.603 121.903 360.234 124.309 364.821C125.794 367.654 127.312 370.47 128.862 373.269C133.686 381.986 138.813 390.527 144.244 398.891C151.438 409.971 158.574 419.758 166.769 430.119C166.995 430.406 166.592 430.815 166.364 430.524Z" fill="#E4E4E4"/>
<path d="M71.9929 356.725C71.6928 356.391 71.3947 356.056 71.0927 355.722C68.7113 353.088 66.156 350.485 62.8858 348.975C61.3266 348.233 59.6244 347.838 57.8975 347.819C56.1155 347.868 54.3586 348.251 52.7181 348.949C51.9383 349.26 51.1757 349.614 50.4246 349.99C49.5664 350.422 48.7235 350.883 47.8846 351.347C46.3097 352.219 44.7552 353.128 43.2211 354.076C40.1688 355.963 37.2121 357.993 34.351 360.168C32.8679 361.295 31.4153 362.46 29.9934 363.661C28.6708 364.777 27.375 365.924 26.1059 367.1C25.8345 367.35 25.4293 366.945 25.7007 366.694C26.0352 366.383 26.3735 366.073 26.7118 365.767C27.6674 364.904 28.6383 364.056 29.6246 363.226C31.423 361.708 33.2679 360.249 35.1595 358.849C38.1009 356.67 41.1436 354.639 44.2875 352.756C45.8586 351.815 47.4513 350.915 49.0656 350.053C49.553 349.793 50.0462 349.539 50.545 349.298C51.6768 348.727 52.8528 348.249 54.0616 347.867C55.774 347.313 57.5856 347.135 59.373 347.345C61.0988 347.596 62.7615 348.171 64.2734 349.04C67.4843 350.835 69.9746 353.61 72.3981 356.318C72.6428 356.594 72.2394 357.001 71.9929 356.725Z" fill="#E4E4E4"/>
<path d="M137.782 384.017L145.476 381.203L149.296 379.806C150.531 379.309 151.789 378.876 153.068 378.507C154.186 378.188 155.372 378.203 156.482 378.551C157.471 378.917 158.376 379.478 159.144 380.201C159.929 380.924 160.659 381.703 161.328 382.533C162.16 383.533 162.979 384.543 163.802 385.549C167.199 389.704 170.574 393.877 173.927 398.067C177.279 402.258 180.61 406.466 183.917 410.692C187.233 414.929 190.526 419.183 193.796 423.455C194.197 423.978 194.597 424.502 194.997 425.025C195.218 425.315 195.716 425.029 195.492 424.736C192.198 420.421 188.881 416.124 185.54 411.844C182.192 407.555 178.82 403.283 175.425 399.03C172.031 394.777 168.613 390.542 165.172 386.325C164.315 385.275 163.457 384.226 162.597 383.177C161.871 382.293 161.154 381.4 160.358 380.577C158.898 379.066 157.073 377.731 154.889 377.695C153.605 377.674 152.362 378.081 151.169 378.513C149.882 378.978 148.599 379.452 147.315 379.922L139.567 382.756L137.63 383.465C137.286 383.59 137.435 384.145 137.782 384.017Z" fill="#E4E4E4"/>
<path d="M61.8733 352.289C59.8962 351.315 57.6955 350.885 55.4971 351.042C53.2986 351.199 51.1816 351.938 49.3632 353.184C56.2165 354.366 62.9948 355.948 69.6634 357.922C66.8942 356.299 64.7281 353.756 61.8733 352.289Z" fill="white"/>
<path d="M49.3247 353.177L48.572 353.789C48.8266 353.575 49.0913 353.374 49.3632 353.184C49.3504 353.182 49.3376 353.179 49.3247 353.177Z" fill="#F2F2F2"/>
<path d="M158.854 384.046C158.097 383.124 157.278 382.158 156.145 381.784L155.088 381.826C163.139 396.052 174.013 408.484 187.041 418.356C177.646 406.919 168.25 395.482 158.854 384.046Z" fill="white"/>
<g opacity="0.17">
<path d="M179.495 331.455C181.628 330.525 177.303 329.983 172.395 329.805C167.488 329.627 161.552 329.637 158.416 329.131C155.382 328.641 155.606 327.771 155.351 326.982C155.096 326.193 153.93 325.384 149.197 325.209C143.299 324.99 133.574 325.831 129.122 325.326C124.967 324.855 127.437 323.377 121.379 323.321C117.919 323.288 113.463 323.776 109.613 323.893C106.885 324.012 104.151 323.869 101.45 323.468C99.5737 323.16 98.2669 322.771 96.1553 322.499C90.6117 321.786 79.7656 322.026 70.085 322.939C60.4045 323.853 52.1065 325.35 47.4267 326.833C42.7469 328.316 41.4539 329.776 42.5441 331.014C43.2401 331.805 45.0214 332.544 49.3424 332.862C57.4244 333.456 71.8138 332.433 80.1652 332.974C84.8198 333.275 86.8848 334.022 90.9687 334.431C95.3562 334.87 101.779 334.893 108.09 334.883C121.229 334.861 134.704 334.726 148.445 334.479C154.184 334.375 160.198 334.241 166.305 333.748C172.412 333.255 178.641 332.304 179.93 331.413" fill="white"/>
</g>
<path d="M88.648 313.253C89.2589 313.253 89.7541 312.758 89.7541 312.147C89.7541 311.536 89.2589 311.041 88.648 311.041C88.0372 311.041 87.542 311.536 87.542 312.147C87.542 312.758 88.0372 313.253 88.648 313.253Z" fill="white"/>
<path d="M115.716 300.824C116.083 300.824 116.38 300.526 116.38 300.16C116.38 299.793 116.083 299.496 115.716 299.496C115.35 299.496 115.053 299.793 115.053 300.16C115.053 300.526 115.35 300.824 115.716 300.824Z" fill="white"/>
<path d="M79.1173 341.859C79.4838 341.859 79.7809 341.561 79.7809 341.195C79.7809 340.828 79.4838 340.531 79.1173 340.531C78.7508 340.531 78.4537 340.828 78.4537 341.195C78.4537 341.561 78.7508 341.859 79.1173 341.859Z" fill="white"/>
<path d="M155.271 310.956C155.638 310.956 155.935 310.659 155.935 310.293C155.935 309.926 155.638 309.629 155.271 309.629C154.905 309.629 154.608 309.926 154.608 310.293C154.608 310.659 154.905 310.956 155.271 310.956Z" fill="white"/>
<path d="M111.279 329.81C111.645 329.81 111.942 329.513 111.942 329.147C111.942 328.78 111.645 328.483 111.279 328.483C110.912 328.483 110.615 328.78 110.615 329.147C110.615 329.513 110.912 329.81 111.279 329.81Z" fill="white"/>
<path d="M129.393 317.981C129.76 317.981 130.057 317.683 130.057 317.317C130.057 316.95 129.76 316.653 129.393 316.653C129.027 316.653 128.73 316.95 128.73 317.317C128.73 317.683 129.027 317.981 129.393 317.981Z" fill="white"/>
<path d="M162.924 353.455C163.291 353.455 163.588 353.158 163.588 352.791C163.588 352.425 163.291 352.127 162.924 352.127C162.558 352.127 162.261 352.425 162.261 352.791C162.261 353.158 162.558 353.455 162.924 353.455Z" fill="white"/>
<path d="M35.7524 347.909C36.1189 347.909 36.416 347.612 36.416 347.246C36.416 346.879 36.1189 346.582 35.7524 346.582C35.3859 346.582 35.0887 346.879 35.0887 347.246C35.0887 347.612 35.3859 347.909 35.7524 347.909Z" fill="white"/>
<path d="M196.495 425.155V438.068C196.492 439.599 195.883 441.067 194.801 442.149C193.718 443.232 192.251 443.841 190.72 443.843H26.1212C24.5903 443.841 23.1228 443.232 22.0403 442.149C20.9578 441.067 20.3488 439.599 20.3467 438.068V421.935C28.8119 419.863 37.5164 418.933 46.2284 419.17C67.2635 419.628 87.8069 425.244 108.646 428.15C133.186 431.565 158.103 431.222 182.539 427.133C187.145 426.36 191.837 425.458 196.495 425.155Z" fill="#3F3D56"/>
<path d="M140.666 366.376C139.826 364.82 139.709 362.78 140.741 361.344C141.251 363.198 142.401 364.813 143.987 365.901C144.6 366.318 145.325 366.719 145.535 367.43C145.646 367.884 145.578 368.362 145.345 368.767C145.113 369.167 144.831 369.535 144.506 369.863L144.476 369.975C142.954 369.073 141.507 367.933 140.666 366.376Z" fill="#3F3D56"/>
<path d="M86.6923 407.781C85.8518 406.225 85.7345 404.185 86.7665 402.749C87.2769 404.603 88.4268 406.217 90.0128 407.306C90.6259 407.723 91.3514 408.124 91.5611 408.835C91.6715 409.289 91.6035 409.767 91.3712 410.172C91.1393 410.572 90.8572 410.94 90.5317 411.268L90.502 411.38C88.9804 410.478 87.5328 409.337 86.6923 407.781Z" fill="#3F3D56"/>
<path d="M153.236 399.278C152.395 397.722 152.278 395.682 153.31 394.246C153.82 396.101 154.97 397.715 156.556 398.803C157.169 399.22 157.895 399.621 158.105 400.332C158.215 400.786 158.147 401.265 157.915 401.669C157.683 402.069 157.401 402.438 157.075 402.766L157.045 402.877C155.524 401.975 154.076 400.835 153.236 399.278Z" fill="#3F3D56"/>
<path d="M53.9387 309.506C51.6708 309.506 49.4539 308.833 47.5682 307.573C45.6825 306.313 44.2128 304.522 43.345 302.427C42.4771 300.332 42.25 298.026 42.6924 295.802C43.1349 293.578 44.227 291.535 45.8306 289.931C47.4342 288.327 49.4774 287.235 51.7017 286.793C53.926 286.35 56.2315 286.577 58.3267 287.445C60.422 288.313 62.2128 289.783 63.4728 291.668C64.7328 293.554 65.4053 295.771 65.4053 298.039C65.4018 301.079 64.1927 303.994 62.043 306.143C59.8934 308.293 56.9788 309.502 53.9387 309.506Z" fill="white"/>
<path d="M88.4806 297.451C85.4949 294.319 82.0273 291.462 77.9223 289.952C76.7789 289.529 75.5933 289.231 74.386 289.063C74.3763 289.062 74.3671 289.064 74.3574 289.063C74.3378 289.058 74.3179 289.054 74.2978 289.051C72.6093 288.836 70.8954 288.94 69.2451 289.356C68.438 289.559 67.6507 289.833 66.8924 290.176C66.1316 290.547 65.3943 290.965 64.6849 291.427C63.1833 292.326 61.5301 292.942 59.8067 293.247C58.9416 293.402 58.0655 293.488 57.1867 293.504C56.439 293.479 55.6927 293.586 54.9825 293.821C54.2108 294.111 53.5175 294.578 52.9581 295.184C52.3987 295.789 51.9887 296.517 51.7606 297.31C51.743 297.38 51.7483 297.455 51.7757 297.522C51.8031 297.589 51.8512 297.646 51.9131 297.684C52.1085 297.824 52.299 297.983 52.5044 298.108C52.687 298.192 52.8821 298.245 53.082 298.265C53.4084 298.334 53.7353 298.401 54.0626 298.466C55.2683 298.705 56.479 298.916 57.6948 299.101C60.1548 299.473 62.6281 299.735 65.1146 299.887C70.096 300.189 75.0944 300.039 80.0486 299.439C82.8329 299.101 85.5983 298.623 88.3342 298.006C88.3895 297.989 88.4398 297.959 88.4801 297.918C88.5203 297.876 88.5492 297.825 88.564 297.77C88.5787 297.714 88.5788 297.655 88.5641 297.599C88.5495 297.543 88.5207 297.492 88.4806 297.451Z" fill="#F0F0F0"/>
<path d="M54.474 304.994C53.3306 304.572 52.145 304.274 50.9377 304.105C50.928 304.104 50.9188 304.106 50.9091 304.105C50.8895 304.1 50.8696 304.096 50.8495 304.094C49.161 303.878 47.4471 303.982 45.7968 304.399C44.9897 304.601 44.2024 304.875 43.4441 305.218C42.6833 305.589 41.946 306.007 41.2366 306.469C39.735 307.368 38.0818 307.985 36.3584 308.289C35.4933 308.445 34.6172 308.531 33.7384 308.546C32.9907 308.521 32.2444 308.628 31.5342 308.863C30.7625 309.154 30.0692 309.62 29.5098 310.226C28.9504 310.832 28.5403 311.56 28.3123 312.352C28.2947 312.423 28.3 312.497 28.3274 312.564C28.3548 312.632 28.4029 312.689 28.4648 312.727C28.6602 312.867 28.8507 313.026 29.0561 313.15C29.2387 313.234 29.4338 313.287 29.6336 313.308C29.9601 313.377 30.287 313.444 30.6143 313.508C31.82 313.747 33.0307 313.959 34.2465 314.143C36.7065 314.515 39.1797 314.778 41.6663 314.93C46.6477 315.232 51.6461 315.081 56.6003 314.481C59.3846 314.144 62.15 313.665 64.8858 313.048C64.9412 313.032 64.9915 313.001 65.0318 312.96C65.072 312.919 65.1009 312.868 65.1157 312.812C65.1304 312.756 65.1305 312.697 65.1158 312.642C65.1012 312.586 65.0724 312.535 65.0323 312.493C62.0466 309.361 58.579 306.504 54.474 304.994Z" fill="#F0F0F0"/>
<path d="M105.648 463.931H22.4687C21.8804 463.931 21.3162 463.698 20.9002 463.282C20.4842 462.866 20.2505 462.302 20.2505 461.713C20.2505 461.125 20.4842 460.561 20.9002 460.145C21.3162 459.729 21.8804 459.495 22.4687 459.495H105.648C106.236 459.495 106.8 459.729 107.216 460.145C107.632 460.561 107.866 461.125 107.866 461.713C107.866 462.302 107.632 462.866 107.216 463.282C106.8 463.698 106.236 463.931 105.648 463.931Z" fill="#CCCCCC"/>
<path d="M63.8735 476.316H22.4687C21.8804 476.316 21.3162 476.082 20.9002 475.666C20.4842 475.25 20.2505 474.686 20.2505 474.098C20.2505 473.51 20.4842 472.945 20.9002 472.529C21.3162 472.113 21.8804 471.88 22.4687 471.88H63.8735C64.4618 471.88 65.0259 472.113 65.4419 472.529C65.8579 472.945 66.0916 473.51 66.0916 474.098C66.0916 474.686 65.8579 475.25 65.4419 475.666C65.0259 476.082 64.4618 476.316 63.8735 476.316Z" fill="#CCCCCC"/>
<path d="M48.1156 408.123L54.4753 403.294L57.5751 406.394L47.2147 413.485L48.1156 408.123Z" fill="#2F2E41"/>
<path d="M42.1839 421.418H20.4284L21.1914 418.946C25.9205 417.234 23.2642 413.554 27.7627 411.305C38.7657 405.803 43.0254 389.386 41.4142 382.897L48.6247 382.592C48.6247 382.592 58.5824 410.87 42.1839 421.418Z" fill="#2F2E41"/>
<path d="M60.7569 409.797C60.1071 410.368 59.2757 410.691 58.4105 410.707C57.5453 410.723 56.7024 410.432 56.0317 409.885L56.0175 409.873L56.017 409.855C56.0091 409.552 55.9619 409.252 55.8766 408.961C55.8723 409.17 55.8418 409.378 55.7857 409.58L55.7675 409.648L55.7186 409.597C55.6764 409.554 55.6356 409.51 55.5972 409.466C55.3715 409.21 55.1825 408.924 55.0355 408.616C54.332 407.169 53.3127 405.898 52.0528 404.898C51.8279 404.715 51.6186 404.513 51.4271 404.296C50.6181 403.375 50.1632 402.197 50.1438 400.972C50.1244 399.747 50.5417 398.554 51.3211 397.609C52.1005 396.663 53.191 396.026 54.3974 395.811C55.6038 395.596 56.8472 395.818 57.9051 396.436L57.9374 396.455L57.9206 396.489C57.7981 396.743 57.6363 396.976 57.4412 397.18C57.7095 397.035 57.9577 396.856 58.1796 396.647L58.203 396.625L58.2295 396.643C58.5771 396.883 58.8939 397.165 59.1729 397.483L59.203 397.517C59.416 397.761 59.6779 397.957 59.9718 398.092C60.2656 398.228 60.5847 398.3 60.9083 398.304C61.4362 398.313 61.956 398.436 62.4318 398.665C62.9076 398.894 63.3281 399.223 63.6645 399.63C64.0009 400.037 64.2451 400.512 64.3804 401.023C64.5157 401.533 64.5387 402.067 64.4481 402.587L64.4439 402.611L64.4205 402.618C64.0102 402.759 63.5752 402.813 63.1429 402.778C63.5038 402.935 63.8884 403.031 64.2808 403.063L64.3315 403.067L64.3154 403.115C64.111 403.729 63.7471 404.277 63.2611 404.705L63.2472 404.717L63.2325 404.73C62.8703 405.041 62.5741 405.422 62.3611 405.85C62.1481 406.278 62.0228 406.744 61.9923 407.221C61.9682 407.711 61.8466 408.191 61.6344 408.634C61.4223 409.076 61.1239 409.471 60.7569 409.797Z" fill="#3F3D56"/>
<path opacity="0.15" d="M61.4223 408.621C61.4157 408.753 61.402 408.884 61.3812 409.015C61.7375 408.467 61.9425 407.836 61.9754 407.184C61.9802 407.084 61.9907 406.984 62.0047 406.885C61.6586 407.401 61.4574 408.001 61.4223 408.621Z" fill="black"/>
<path opacity="0.15" d="M62.5729 404.178C62.8632 404.303 63.169 404.39 63.4822 404.435C63.6029 404.307 63.7143 404.172 63.8155 404.028C63.4157 404.162 62.9929 404.213 62.5729 404.178Z" fill="black"/>
<path opacity="0.15" d="M63.913 402.977C63.9454 403.293 63.9366 403.612 63.887 403.926C64.0604 403.662 64.1988 403.377 64.2985 403.077L64.3146 403.029L64.2639 403.025C64.1462 403.015 64.0291 402.999 63.913 402.977Z" fill="black"/>
<path opacity="0.15" d="M63.5747 399.507C63.2381 399.125 62.8257 398.818 62.3637 398.604C61.9017 398.39 61.4002 398.275 60.8913 398.266C60.5677 398.262 60.2486 398.19 59.9548 398.055C59.661 397.919 59.399 397.723 59.186 397.479L59.156 397.445C58.8769 397.128 58.5601 396.846 58.2126 396.605L58.1861 396.587L58.1626 396.609C57.9407 396.818 57.6925 396.998 57.4242 397.142C57.6194 396.939 57.7812 396.705 57.9037 396.451L57.9204 396.418L57.8882 396.399C57.1869 395.988 56.3984 395.749 55.5872 395.702C54.776 395.654 53.965 395.799 53.2204 396.124C52.4757 396.449 51.8186 396.946 51.3025 397.574C50.7865 398.202 50.4261 398.942 50.2509 399.736C50.5884 399.143 51.0402 398.623 51.5801 398.206C52.1201 397.789 52.7374 397.483 53.3963 397.307C54.0553 397.13 54.7427 397.086 55.4188 397.177C56.095 397.268 56.7463 397.492 57.3351 397.837L57.3674 397.855L57.3506 397.889C57.2281 398.143 57.0663 398.376 56.8712 398.58C57.1395 398.435 57.3877 398.256 57.6096 398.047L57.633 398.025L57.6595 398.043C58.0071 398.283 58.3239 398.565 58.6029 398.883L58.633 398.917C58.846 399.161 59.1079 399.357 59.4018 399.493C59.6956 399.628 60.0147 399.7 60.3383 399.704C61.1844 399.719 61.9993 400.026 62.6441 400.574C63.2889 401.122 63.7237 401.876 63.8743 402.709C64.0532 402.677 64.2299 402.634 64.4035 402.58L64.4269 402.573L64.4311 402.549C64.5261 402.01 64.4984 401.457 64.3501 400.93C64.2018 400.404 63.9368 399.917 63.5747 399.507Z" fill="black"/>
<path d="M71.2719 384.453C71.2717 387.24 70.2833 389.936 68.4826 392.062C66.6818 394.188 64.1854 395.607 61.4372 396.066L61.379 396.075L61.334 396.038C60.5848 395.413 59.7577 394.888 58.8734 394.476C59.3703 394.931 59.8081 395.447 60.1766 396.012L60.3019 396.2L60.076 396.211C59.881 396.22 59.6873 396.225 59.5003 396.225C58.4011 396.226 57.3071 396.074 56.2496 395.774C51.2554 394.399 46.0161 394.161 40.9179 395.08C39.9972 395.235 39.0652 395.312 38.1315 395.312C34.186 395.311 30.3697 393.905 27.3662 391.346C24.3626 388.788 22.3679 385.244 21.7392 381.349C21.1105 377.453 21.8888 373.462 23.9349 370.088C25.981 366.714 29.1611 364.179 32.9059 362.937L33.02 362.899L33.0651 363.01C33.4194 363.847 33.6396 364.735 33.7176 365.64C33.9377 364.683 34.032 363.702 33.998 362.72L33.9944 362.617L34.0952 362.592C35.4154 362.263 36.7709 362.096 38.1315 362.096L38.2788 362.097C39.3208 362.1 40.3517 361.884 41.3044 361.462C42.2571 361.04 43.1101 360.421 43.8079 359.648C44.952 358.39 46.355 357.395 47.9204 356.732C49.4857 356.068 51.1762 355.752 52.8755 355.804C54.5749 355.856 56.2427 356.276 57.7644 357.034C59.286 357.793 60.6253 358.872 61.6902 360.197L61.7397 360.258L61.707 360.33C61.1752 361.622 60.3813 362.789 59.3755 363.758C60.5233 363.22 61.5739 362.495 62.4846 361.613L62.6022 361.499L62.6846 361.64C63.7341 363.44 64.2868 365.487 64.2859 367.57L64.2858 367.629C64.2856 367.65 64.2856 367.672 64.2856 367.693C64.2694 369.231 64.5607 370.758 65.1423 372.183C65.7239 373.607 66.5842 374.902 67.6727 375.99C68.8059 377.09 69.708 378.405 70.3261 379.858C70.9441 381.312 71.2657 382.874 71.2719 384.453Z" fill="#3F3D56"/>
<g opacity="0.15">
<path d="M56.8803 356.634C56.4745 357.308 55.9751 357.92 55.3972 358.454C56.2247 358.065 57.0027 357.579 57.7146 357.005C57.4415 356.871 57.1634 356.747 56.8803 356.634Z" fill="black"/>
<path d="M63.6943 370.685C64.3345 371.306 64.9024 371.998 65.387 372.747C64.6577 371.162 64.2819 369.437 64.2856 367.693C64.2856 367.672 64.2856 367.65 64.2858 367.629L64.2859 367.57C64.2867 365.487 63.7341 363.44 62.6846 361.64L62.6021 361.499L62.4846 361.613C61.8356 362.24 61.1149 362.789 60.3376 363.248C60.5066 366.055 61.7012 368.702 63.6943 370.685Z" fill="black"/>
<path d="M60.3075 362.266L60.3074 362.325C60.3072 362.346 60.3072 362.367 60.3072 362.388C60.3072 362.504 60.3093 362.619 60.3126 362.734C60.867 361.988 61.3348 361.182 61.707 360.33L61.7397 360.258L61.6901 360.197C61.0691 359.424 60.3537 358.732 59.5605 358.137C60.0544 359.458 60.3074 360.856 60.3075 362.266Z" fill="black"/>
<path d="M67.6726 375.99C67.1063 375.439 66.6031 374.827 66.1723 374.164C66.9438 375.808 67.3242 377.608 67.2838 379.423C67.2433 381.239 66.783 383.02 65.9389 384.628C65.0949 386.235 63.8901 387.626 62.4188 388.69C60.9476 389.754 59.2499 390.463 57.4588 390.761L57.4006 390.771L57.3557 390.733C56.6064 390.108 55.7793 389.583 54.895 389.171C55.3919 389.627 55.8297 390.143 56.1982 390.707L56.3235 390.896L56.0976 390.906C55.9026 390.916 55.7089 390.921 55.5219 390.921C54.4227 390.922 53.3287 390.77 52.2712 390.47C47.2771 389.094 42.0377 388.857 36.9396 389.775C36.0189 389.93 35.0868 390.008 34.1532 390.008C30.0835 390.011 26.1556 388.513 23.1213 385.801C24.4673 388.644 26.5921 391.047 29.2491 392.73C31.906 394.414 34.9861 395.309 38.1315 395.312C39.0652 395.312 39.9972 395.235 40.9179 395.08C46.0161 394.161 51.2554 394.399 56.2496 395.774C57.3071 396.074 58.4011 396.226 59.5002 396.225C59.6873 396.225 59.881 396.22 60.076 396.211L60.3019 396.2L60.1765 396.012C59.8081 395.447 59.3703 394.931 58.8734 394.476C59.7577 394.888 60.5848 395.413 61.334 396.038L61.379 396.075L61.4371 396.066C63.5879 395.708 65.5969 394.76 67.24 393.326C68.8831 391.893 70.0957 390.032 70.7424 387.95C71.3891 385.867 71.4446 383.646 70.9025 381.535C70.3605 379.423 69.2422 377.503 67.6726 375.99Z" fill="black"/>
</g>
</g>
<path d="M0 10C0 4.47715 4.47715 0 10 0H436.693C442.216 0 446.693 4.47715 446.693 10V241.982H0V10Z" fill="#FACB2E"/>
<g clip-path="url(#clip2_45_1034)">
<path d="M358.818 234.519H91.2835C85.8936 234.513 80.7262 232.296 76.9149 228.355C73.1037 224.414 70.9598 219.07 70.9536 213.497V162.021C70.9598 156.447 73.1037 151.104 76.9149 147.163C80.7262 143.222 85.8936 141.005 91.2835 140.998L358.818 90.0824C364.208 90.0887 369.375 92.3056 373.186 96.2467C376.998 100.188 379.141 105.531 379.148 111.105V213.497C379.141 219.07 376.998 224.414 373.186 228.355C369.375 232.296 364.208 234.513 358.818 234.519Z" fill="#3F3D56"/>
<path d="M96.0449 150.57H95.1668V232.175H96.0449V150.57Z" fill="#2F2E41"/>
<path d="M76.2888 153.632H75.4108V188.592H76.2888V153.632Z" fill="#2F2E41"/>
<path d="M88.1324 140.998H87.2543V222.604H88.1324V140.998Z" fill="#2F2E41"/>
<path d="M321.251 140.317H153.121C151.997 140.316 150.919 139.854 150.124 139.032C149.329 138.209 148.882 137.095 148.88 135.932V33.7828C148.882 32.6202 149.329 31.5056 150.124 30.6834C150.919 29.8613 151.997 29.3989 153.121 29.3976H321.251C322.375 29.3989 323.453 29.8613 324.248 30.6834C325.043 31.5055 325.49 32.6202 325.492 33.7828V135.932C325.49 137.095 325.043 138.209 324.248 139.031C323.453 139.854 322.375 140.316 321.251 140.317Z" fill="#E6E7E8"/>
<path d="M300.563 140.317H152.612C151.623 140.316 150.674 139.909 149.974 139.186C149.275 138.462 148.881 137.482 148.88 136.459V46.5694C148.881 45.5463 149.275 44.5654 149.974 43.842C150.674 43.1186 151.623 42.7116 152.612 42.7105H300.563C301.552 42.7117 302.501 43.1186 303.2 43.842C303.9 44.5654 304.293 45.5463 304.294 46.5694V136.459C304.293 137.482 303.9 138.462 303.2 139.186C302.5 139.909 301.552 140.316 300.563 140.317Z" fill="#2F2E41"/>
<path d="M342.05 177.317H109.368C108.379 177.316 107.43 176.909 106.731 176.186C106.031 175.462 105.638 174.481 105.636 173.458V138.501C105.638 137.478 106.031 136.498 106.731 135.774C107.43 135.051 108.379 134.644 109.368 134.643H342.05C343.04 134.644 343.988 135.051 344.688 135.774C345.387 136.498 345.781 137.478 345.782 138.501V173.458C345.781 174.481 345.387 175.462 344.688 176.186C343.988 176.909 343.04 177.316 342.05 177.317Z" fill="#3F3D56"/>
<path d="M231.307 144.403H147.892C145.953 144.403 144.38 146.029 144.38 148.035V165.287C144.38 167.292 145.953 168.918 147.892 168.918H231.307C233.246 168.918 234.819 167.292 234.819 165.287V148.035C234.819 146.029 233.246 144.403 231.307 144.403Z" fill="#522882"/>
<path d="M277.624 149.624C279.806 149.624 281.575 147.795 281.575 145.538C281.575 143.282 279.806 141.452 277.624 141.452C275.441 141.452 273.672 143.282 273.672 145.538C273.672 147.795 275.441 149.624 277.624 149.624Z" fill="#2F2E41"/>
<path d="M290.355 149.624C292.537 149.624 294.306 147.795 294.306 145.538C294.306 143.282 292.537 141.452 290.355 141.452C288.173 141.452 286.404 143.282 286.404 145.538C286.404 147.795 288.173 149.624 290.355 149.624Z" fill="#2F2E41"/>
<path d="M303.087 149.624C305.269 149.624 307.038 147.795 307.038 145.538C307.038 143.282 305.269 141.452 303.087 141.452C300.905 141.452 299.136 143.282 299.136 145.538C299.136 147.795 300.905 149.624 303.087 149.624Z" fill="#2F2E41"/>
<path d="M277.624 160.066C279.806 160.066 281.575 158.236 281.575 155.98C281.575 153.723 279.806 151.894 277.624 151.894C275.441 151.894 273.672 153.723 273.672 155.98C273.672 158.236 275.441 160.066 277.624 160.066Z" fill="#2F2E41"/>
<path d="M290.355 160.066C292.537 160.066 294.306 158.236 294.306 155.98C294.306 153.723 292.537 151.894 290.355 151.894C288.173 151.894 286.404 153.723 286.404 155.98C286.404 158.236 288.173 160.066 290.355 160.066Z" fill="#2F2E41"/>
<path d="M303.087 160.066C305.269 160.066 307.038 158.236 307.038 155.98C307.038 153.723 305.269 151.894 303.087 151.894C300.905 151.894 299.136 153.723 299.136 155.98C299.136 158.236 300.905 160.066 303.087 160.066Z" fill="#2F2E41"/>
<path d="M277.624 170.507C279.806 170.507 281.575 168.678 281.575 166.422C281.575 164.165 279.806 162.336 277.624 162.336C275.441 162.336 273.672 164.165 273.672 166.422C273.672 168.678 275.441 170.507 277.624 170.507Z" fill="#2F2E41"/>
<path d="M248.139 154.656C250.321 154.656 252.09 152.826 252.09 150.57C252.09 148.313 250.321 146.484 248.139 146.484C245.957 146.484 244.188 148.313 244.188 150.57C244.188 152.826 245.957 154.656 248.139 154.656Z" fill="#2F2E41"/>
<path d="M248.139 165.097C250.321 165.097 252.09 163.268 252.09 161.012C252.09 158.755 250.321 156.926 248.139 156.926C245.957 156.926 244.188 158.755 244.188 161.012C244.188 163.268 245.957 165.097 248.139 165.097Z" fill="#2F2E41"/>
<path d="M357.847 98.3946C362.511 98.3946 366.291 94.485 366.291 89.6622C366.291 84.8394 362.511 80.9298 357.847 80.9298C353.183 80.9298 349.402 84.8394 349.402 89.6622C349.402 94.485 353.183 98.3946 357.847 98.3946Z" fill="#3F3D56"/>
<path d="M133.244 154.656C135.427 154.656 137.196 152.826 137.196 150.57C137.196 148.313 135.427 146.484 133.244 146.484C131.062 146.484 129.293 148.313 129.293 150.57C129.293 152.826 131.062 154.656 133.244 154.656Z" fill="#2F2E41"/>
<path d="M133.244 165.097C135.427 165.097 137.196 163.268 137.196 161.012C137.196 158.755 135.427 156.926 133.244 156.926C131.062 156.926 129.293 158.755 129.293 161.012C129.293 163.268 131.062 165.097 133.244 165.097Z" fill="#2F2E41"/>
<path d="M290.355 170.507C292.537 170.507 294.306 168.678 294.306 166.422C294.306 164.165 292.537 162.336 290.355 162.336C288.173 162.336 286.404 164.165 286.404 166.422C286.404 168.678 288.173 170.507 290.355 170.507Z" fill="#2F2E41"/>
<path d="M303.087 170.507C305.269 170.507 307.038 168.678 307.038 166.422C307.038 164.165 305.269 162.336 303.087 162.336C300.905 162.336 299.136 164.165 299.136 166.422C299.136 168.678 300.905 170.507 303.087 170.507Z" fill="#2F2E41"/>
<path d="M341.392 213.863H108.271C107.281 213.862 106.333 213.455 105.633 212.732C104.934 212.008 104.54 211.027 104.539 210.004V190.937C104.54 189.914 104.934 188.933 105.633 188.209C106.333 187.486 107.281 187.079 108.271 187.078H341.392C342.381 187.079 343.33 187.486 344.029 188.209C344.729 188.933 345.122 189.914 345.123 190.937V210.004C345.122 211.027 344.729 212.008 344.029 212.732C343.33 213.455 342.381 213.862 341.392 213.863Z" fill="#2F2E41"/>
<path d="M165.783 62.4589H290.904C291.836 62.4589 292.729 62.8415 293.388 63.5226C294.046 64.2037 294.416 65.1275 294.416 66.0908V129.884C294.416 130.847 294.046 131.771 293.388 132.452C292.729 133.133 291.836 133.516 290.904 133.516H165.783C164.851 133.516 163.958 133.133 163.299 132.452C162.64 131.771 162.27 130.847 162.27 129.884V66.0908C162.27 65.6138 162.361 65.1415 162.538 64.7009C162.714 64.2603 162.973 63.8599 163.299 63.5226C163.625 63.1854 164.012 62.9179 164.439 62.7353C164.865 62.5528 165.321 62.4589 165.783 62.4589Z" fill="white"/>
<path d="M189.224 81.8471C192.937 81.8471 195.947 78.7346 195.947 74.8952C195.947 71.0558 192.937 67.9433 189.224 67.9433C185.511 67.9433 182.501 71.0558 182.501 74.8952C182.501 78.7346 185.511 81.8471 189.224 81.8471Z" fill="#522882"/>
<path d="M216.097 92.4136H184.503C183.973 92.414 183.464 92.1968 183.088 91.8095C182.712 91.4222 182.501 90.8965 182.499 90.348C182.498 89.7994 182.708 89.2728 183.082 88.8838C183.456 88.4948 183.964 88.2752 184.494 88.2733H216.097C216.36 88.2727 216.621 88.3258 216.864 88.4294C217.107 88.533 217.328 88.6852 217.514 88.8772C217.701 89.0692 217.848 89.2973 217.949 89.5484C218.05 89.7995 218.103 90.0687 218.103 90.3407C218.103 90.6127 218.052 90.8821 217.951 91.1335C217.851 91.3849 217.704 91.6133 217.518 91.8058C217.332 91.9983 217.112 92.1511 216.869 92.2554C216.626 92.3596 216.365 92.4134 216.102 92.4136H216.097Z" fill="#CCCCCC"/>
<path d="M199.749 100.594H184.503C183.972 100.594 183.463 100.377 183.087 99.9895C182.711 99.6019 182.499 99.0756 182.498 98.5266C182.497 97.9775 182.707 97.4506 183.082 97.0618C183.457 96.6729 183.966 96.454 184.497 96.4532H199.749C200.279 96.454 200.788 96.6725 201.162 97.0606C201.537 97.4488 201.748 97.9749 201.748 98.5234C201.748 99.0719 201.537 99.5981 201.162 99.9862C200.788 100.374 200.279 100.593 199.749 100.594Z" fill="#CCCCCC"/>
<path d="M274.048 116.475H188.893C188.363 116.475 187.853 116.258 187.478 115.87C187.102 115.482 186.891 114.956 186.89 114.407C186.889 113.859 187.099 113.332 187.474 112.943C187.849 112.555 188.357 112.336 188.888 112.335H274.048C274.311 112.334 274.572 112.387 274.815 112.491C275.058 112.594 275.279 112.746 275.465 112.938C275.652 113.13 275.799 113.358 275.9 113.61C276.001 113.861 276.054 114.13 276.054 114.402C276.054 114.674 276.003 114.943 275.902 115.195C275.802 115.446 275.655 115.675 275.469 115.867C275.283 116.06 275.062 116.212 274.82 116.317C274.577 116.421 274.316 116.475 274.053 116.475H274.048Z" fill="#CCCCCC"/>
<path d="M257.7 124.655H188.893C188.363 124.654 187.854 124.436 187.48 124.047C187.105 123.659 186.894 123.133 186.894 122.585C186.894 122.036 187.105 121.51 187.48 121.122C187.854 120.734 188.363 120.515 188.893 120.514H257.7C258.23 120.515 258.739 120.734 259.114 121.122C259.488 121.51 259.699 122.036 259.699 122.585C259.699 123.133 259.488 123.659 259.114 124.047C258.739 124.436 258.23 124.654 257.7 124.655Z" fill="#CCCCCC"/>
<path d="M42.0283 210.554L41.5903 200.37C37.024 197.846 31.9309 196.512 26.7532 196.486C33.8792 202.51 32.9887 214.124 37.8199 222.225C39.3455 224.74 41.3988 226.868 43.8276 228.451C46.2564 230.033 48.9985 231.031 51.8508 231.368L57.814 235.144C58.6323 230.427 58.4519 225.582 57.2853 220.944C56.1186 216.306 53.9935 211.985 51.0562 208.278C49.3885 206.215 47.4763 204.378 45.3646 202.809C43.9363 206.703 42.0283 210.554 42.0283 210.554Z" fill="#F2F2F2"/>
<path d="M74.604 124.081C75.1338 123.736 75.584 123.274 75.9227 122.729C76.2614 122.184 76.4805 121.569 76.5644 120.927C76.6484 120.285 76.5952 119.632 76.4086 119.014C76.2221 118.395 75.9066 117.827 75.4846 117.348L89.7033 84.7675L81.8192 85.4656L69.1754 117.242C68.4448 118.029 68.0185 119.065 67.9773 120.155C67.9362 121.244 68.283 122.312 68.9522 123.155C69.6213 123.998 70.5662 124.558 71.6078 124.729C72.6495 124.899 73.7156 124.669 74.604 124.081Z" fill="#9E616A"/>
<path d="M100.436 54.142L96.6679 49.5056C96.6679 49.5056 94.52 49.1805 90.3408 55.586C86.2272 61.8909 80.0314 75.2735 83.2693 77.1747L68.8974 108.916L78.0635 113.394L93.5168 79.1257L100.368 69.4854L100.436 54.142Z" fill="#E6E6E6"/>
<path d="M93.3997 108.73L119.741 108.276L121.936 89.6622H93.3997V108.73Z" fill="#9E616A"/>
<path d="M117.751 222.604L123.832 222.603L126.725 198.348L117.75 198.349L117.751 222.604Z" fill="#9E616A"/>
<path d="M79.0102 222.519L85.0911 222.475L87.8196 198.199L79.9111 200.076L79.0102 222.519Z" fill="#9E616A"/>
<path d="M98.0296 73.6324L96.6519 77.3369L96.9272 81.0415L123.894 90.7L122.556 74.4873L119.525 70.7828L98.0296 73.6324Z" fill="#FFB6B6"/>
<path d="M109.598 40.2948C114.918 40.2948 119.23 35.8357 119.23 30.3351C119.23 24.8345 114.918 20.3754 109.598 20.3754C104.279 20.3754 99.967 24.8345 99.967 30.3351C99.967 35.8357 104.279 40.2948 109.598 40.2948Z" fill="#9E616A"/>
<path d="M116.243 219.501L125.856 218.908V223.167L134.995 229.694C135.447 230.016 135.787 230.479 135.966 231.016C136.145 231.552 136.153 232.133 135.99 232.675C135.826 233.217 135.5 233.69 135.058 234.026C134.616 234.362 134.082 234.544 133.533 234.544H122.089L120.116 230.331L119.346 234.544H115.031L116.243 219.501Z" fill="#2F2E41"/>
<path d="M76.93 219.432L86.5386 218.769L86.5675 223.028L95.7507 229.488C96.2042 229.808 96.5473 230.268 96.7298 230.803C96.9123 231.338 96.9247 231.919 96.7651 232.462C96.6055 233.005 96.2824 233.481 95.8428 233.82C95.4032 234.159 94.8702 234.344 94.3217 234.348L82.8775 234.431L80.8764 230.233L80.1347 234.451L75.8198 234.482L76.93 219.432Z" fill="#2F2E41"/>
<path d="M77.118 205.256L81.546 168.656L84.1243 133.735C82.8072 117.845 91.6435 99.6498 91.6435 99.6498L95.0999 83.7962L120.625 105.125L120.619 105.098C126.296 121.109 128.177 129.019 127.866 146.069L126.747 207.362H127.098C127.68 207.362 128.239 207.601 128.65 208.027C129.062 208.452 129.293 209.03 129.293 209.632C129.293 210.234 129.062 210.811 128.65 211.237C128.239 211.662 127.68 211.902 127.098 211.902H116.122C115.54 211.902 114.982 211.662 114.57 211.237C114.159 210.811 113.927 210.234 113.927 209.632C113.927 209.03 114.159 208.452 114.57 208.027C114.982 207.601 115.54 207.362 116.122 207.362H116.405L106.331 134.381L97.7898 165.024L88.1313 204.974C91.6435 204.066 91.0982 206.17 91.0982 207.362C91.0982 207.964 90.8669 208.541 90.4553 208.967C90.0436 209.392 89.4852 209.632 88.9031 209.632H77.9275C77.417 209.632 76.9223 209.449 76.5287 209.112C76.1352 208.776 75.8673 208.309 75.7714 207.79C75.6755 207.272 75.7575 206.735 76.0033 206.272C76.2492 205.809 76.6434 205.45 77.118 205.256Z" fill="#2F2E41"/>
<path d="M89.4824 100.842L90.3605 91.7619C90.4517 91.3915 90.6539 91.0604 90.9382 90.8162C91.2225 90.572 91.5743 90.4271 91.9432 90.4023C92.309 86.0771 93.8483 67.4176 93.9402 66.6038L93.9438 66.5694L94.6438 51.1077C94.6692 50.5461 94.8937 50.014 95.2746 49.6128C95.6554 49.2116 96.1658 48.9696 96.7083 48.9329L100.405 48.683C100.456 48.6813 100.504 48.6592 100.539 48.6215C100.574 48.5838 100.594 48.5334 100.594 48.4809C100.594 47.6283 100.922 46.8105 101.505 46.2076C102.088 45.6047 102.879 45.266 103.703 45.266H114.648C115.357 45.2663 116.042 45.5342 116.573 46.0193C117.105 46.5044 117.447 47.1735 117.535 47.9009C117.54 47.951 117.563 47.9973 117.6 48.0306C117.636 48.064 117.683 48.0819 117.732 48.0807L117.733 48.0807C118.977 48.0542 120.189 48.4896 121.148 49.3079C122.108 50.1262 122.753 51.2732 122.964 52.5408C124.461 61.5438 124.386 90.1489 122.904 101.509C122.388 105.463 123.5 102.331 123.695 105.64C123.715 105.96 123.673 106.28 123.572 106.583C123.472 106.886 123.314 107.166 123.109 107.406C124.013 107.677 124.363 108.686 124.131 109.638L124.324 109.588C124.21 110.055 123.921 110.456 123.521 110.703C123.121 110.95 122.643 111.023 122.192 110.905L89.3926 107.403C88.4522 107.158 89.2454 101.814 89.4824 100.842Z" fill="#E6E6E6"/>
<path d="M152.763 90.0727C152.278 90.4825 151.712 90.7773 151.104 90.9363C150.497 91.0953 149.863 91.1147 149.248 90.9931C148.633 90.8715 148.051 90.6119 147.543 90.2325C147.035 89.8531 146.614 89.3632 146.309 88.7973L131.477 91.0247L134.622 83.516L148.216 82.5774C149.169 82.1108 150.255 82.022 151.267 82.3279C152.28 82.6337 153.149 83.3129 153.709 84.2368C154.269 85.1606 154.483 86.265 154.308 87.3406C154.134 88.4162 153.584 89.3883 152.763 90.0727Z" fill="#9E616A"/>
<path d="M125.196 61.1113C125.196 61.1113 126.894 51.4043 121.885 50.0606C116.877 48.717 114.213 57.4231 114.213 57.4231C110.177 70.2894 109.692 79.1525 113.978 82.6352L113.894 91.6768C113.894 91.6768 145.273 92.4933 142.68 90.5273C140.088 88.5613 142.57 83.0016 142.57 83.0016L127.096 80.8748L128.098 78.4745L127.047 78.6835L126.292 76.2334L125.196 61.1113Z" fill="#E6E6E6"/>
<path d="M64.5852 37.2718C62.8085 35.6761 61.0323 34.0789 59.2566 32.4804C59.8471 32.0077 60.5099 31.6404 61.2176 31.3937C63.8283 30.4956 66.6578 31.2918 69.3709 31.7337C72.0879 32.1773 75.2471 32.1065 77.0997 30.0079C79.0252 27.8255 78.7031 24.4934 78.8992 21.5513C79.1684 17.4444 80.7422 13.3769 83.572 10.4856C86.4017 7.5943 90.5258 5.99416 94.4575 6.62939C98.3877 7.26867 101.958 10.2831 103.018 14.2456C104.619 14.3835 106.115 15.1228 107.225 16.3238C108.335 17.5248 108.981 19.1044 109.041 20.7643C109.049 22.3163 108.451 23.9381 107.221 24.831C105.992 25.7239 104.108 25.6709 103.121 24.4954L104.559 22.8987C102.035 22.7746 99.0053 26.3493 98.3886 28.8843C97.7694 31.4136 98.3276 34.0768 98.96 36.6049C99.5924 39.1331 100.308 41.7186 100.007 44.3112C99.5755 48.0405 97.0153 51.2679 93.8489 53.1111C90.6826 54.9543 86.9734 55.571 83.3425 55.6578C80.6242 55.7236 77.9062 55.5107 75.2285 55.0221C76.0104 54.3106 76.7883 53.5976 77.5702 52.8862L71.0643 54.0374C70.0091 53.7265 68.9615 53.3714 67.9295 52.9755C64.9274 51.8164 62.0091 50.257 59.7483 47.9167C57.4852 45.5707 55.9351 42.3579 56.0518 39.0483C56.0924 37.979 56.3195 36.926 56.7221 35.9402C59.3436 36.3827 61.9647 36.8266 64.5852 37.2718Z" fill="#2F2E41"/>
<path d="M119.912 20.9203C118.531 19.8066 116.742 19.3841 114.998 19.2242C111.965 16.2323 110.354 14.8577 106.347 16.1305C102.34 17.4034 100.942 21.7305 99.2124 25.6788C95.0648 35.1438 107.393 43.8455 113.539 39.3056C112.092 37.9245 114.702 33.5144 115.07 31.5144C115.381 29.9217 116.288 28.5207 117.593 27.6166C119.059 28.4646 121.138 27.385 121.643 25.7029C122.162 23.9733 121.293 22.0339 119.912 20.9203Z" fill="#2F2E41"/>
<path d="M13.3464 234.951C13.346 235.094 13.4005 235.231 13.4979 235.332C13.5953 235.434 13.7276 235.491 13.8658 235.491H432.824C432.963 235.491 433.095 235.434 433.193 235.333C433.291 235.232 433.346 235.094 433.346 234.951C433.346 234.808 433.291 234.67 433.193 234.569C433.095 234.468 432.963 234.411 432.824 234.411H13.8689C13.7307 234.41 13.5981 234.467 13.5001 234.567C13.4021 234.668 13.3469 234.805 13.3464 234.948V234.951Z" fill="#CCCCCC"/>
<path d="M300.563 234.442H152.612C150.552 234.44 148.883 233.387 148.88 232.086V212.133C148.883 210.832 150.552 209.779 152.612 209.777H300.563C302.623 209.779 304.292 210.832 304.294 212.133V232.086C304.292 233.387 302.623 234.44 300.563 234.442Z" fill="#2F2E41"/>
<path d="M289.148 229.902H164.026C162.087 229.902 160.514 228.916 160.514 227.701V199.494C160.514 198.278 162.087 197.293 164.026 197.293H289.148C291.088 197.293 292.66 198.278 292.66 199.494V227.701C292.66 228.916 291.088 229.902 289.148 229.902Z" fill="white"/>
<path d="M182.29 212.919H267.445C267.975 212.919 268.485 213.136 268.86 213.524C269.236 213.911 269.447 214.438 269.448 214.986C269.449 215.535 269.239 216.062 268.864 216.45C268.489 216.839 267.981 217.058 267.45 217.059H182.29C181.759 217.06 181.249 216.844 180.873 216.456C180.497 216.069 180.285 215.543 180.283 214.994C180.282 214.445 180.491 213.918 180.866 213.529C181.24 213.14 181.749 212.92 182.28 212.919H182.29Z" fill="#CCCCCC"/>
<path d="M198.638 204.739H267.445C267.976 204.739 268.485 204.957 268.861 205.345C269.236 205.733 269.447 206.26 269.447 206.809C269.447 207.358 269.236 207.884 268.861 208.273C268.485 208.661 267.976 208.879 267.445 208.879H198.638C198.375 208.88 198.115 208.827 197.872 208.723C197.629 208.62 197.408 208.468 197.221 208.276C197.035 208.084 196.887 207.856 196.786 207.605C196.685 207.354 196.633 207.085 196.632 206.813C196.632 206.542 196.683 206.272 196.783 206.021C196.883 205.769 197.03 205.541 197.215 205.348C197.401 205.156 197.621 205.003 197.864 204.898C198.107 204.793 198.367 204.739 198.63 204.739L198.638 204.739Z" fill="#CCCCCC"/>
<path d="M106.118 15.6983C104.575 18.036 102.861 20.6297 100.141 21.5764C99.975 21.628 99.8344 21.7438 99.7487 21.8999C99.663 22.0559 99.6389 22.2401 99.6812 22.4141C99.7291 22.5873 99.8408 22.7342 99.9923 22.8231C100.144 22.912 100.323 22.936 100.491 22.8898C103.573 21.8171 105.499 19.0462 107.256 16.3857C107.299 16.3085 107.328 16.2231 107.34 16.1345C107.351 16.0459 107.346 15.9558 107.324 15.8692C107.302 15.7827 107.264 15.7015 107.212 15.6303C107.16 15.559 107.094 15.4991 107.019 15.454C106.945 15.4089 106.862 15.3794 106.777 15.3672C106.691 15.3551 106.604 15.3605 106.52 15.3832C106.436 15.4059 106.358 15.4454 106.289 15.4994C106.22 15.5535 106.162 15.6211 106.118 15.6983Z" fill="#E6E6E6"/>
<path d="M359.257 90.0824H358.379V217.259H359.257V90.0824Z" fill="#2F2E41"/>
<path d="M367.169 104.999H366.291V232.175H367.169V104.999Z" fill="#2F2E41"/>
<path d="M374.836 104.064H373.958V222.638H374.836V104.064Z" fill="#2F2E41"/>
<path d="M339.891 134.296H136.187V135.204H339.891V134.296Z" fill="#2F2E41"/>
<path d="M339.891 177.425H136.187V178.333H339.891V177.425Z" fill="#2F2E41"/>
</g>
<defs>
<clipPath id="clip0_45_1034">
<rect width="200" height="240.948" fill="white" transform="translate(238.272 257.678)"/>
</clipPath>
<clipPath id="clip1_45_1034">
<rect width="200" height="224.03" fill="white" transform="translate(8.42059 266.15)"/>
</clipPath>
<clipPath id="clip2_45_1034">
<rect width="420" height="229" fill="white" transform="translate(13.3464 6.49115)"/>
</clipPath>
</defs>
</svg>
